<mxfile host="app.diagrams.net" modified="2023-12-14T10:40:43.890Z" agent="5.0 (Macintosh; Intel Mac OS X 10_15_7) AppleWebKit/537.36 (KHTML, like Gecko) Chrome/120.0.0.0 Safari/537.36" etag="rleGZWleZDxne9ZVw35W" version="15.7.4" type="github">
  <diagram id="prtHgNgQTEPvFCAcTncT" name="Page-1">
    <mxGraphModel dx="1113" dy="724" grid="1" gridSize="10" guides="1" tooltips="1" connect="1" arrows="1" fold="1" page="1" pageScale="1" pageWidth="827" pageHeight="1169" math="0" shadow="0">
      <root>
        <mxCell id="0" />
        <mxCell id="1" parent="0" />
        <mxCell id="3-FSc-zlcEPN5zXzUESZ-2" value="" style="rounded=1;whiteSpace=wrap;html=1;fillColor=#28E5B5;perimeterSpacing=1;shadow=0;sketch=0;glass=0;imageAspect=1;strokeWidth=0;fontStyle=1;arcSize=4;" vertex="1" parent="1">
          <mxGeometry x="40" y="170" width="790" height="350" as="geometry" />
        </mxCell>
        <mxCell id="3-FSc-zlcEPN5zXzUESZ-3" value="" style="rounded=1;whiteSpace=wrap;html=1;strokeWidth=1;fillColor=default;rotation=0;arcSize=5;" vertex="1" parent="1">
          <mxGeometry x="50" y="210" width="770" height="300" as="geometry" />
        </mxCell>
        <mxCell id="3-FSc-zlcEPN5zXzUESZ-11" value="插件系统" style="text;html=1;strokeColor=none;fillColor=none;align=center;verticalAlign=middle;whiteSpace=wrap;rounded=0;shadow=0;glass=0;sketch=0;fontStyle=1;fontSize=20;" vertex="1" parent="1">
          <mxGeometry x="385.5" y="170" width="99" height="30" as="geometry" />
        </mxCell>
        <mxCell id="3-FSc-zlcEPN5zXzUESZ-16" value="&lt;h4 class=&quot;md-end-block md-heading md-focus&quot; style=&quot;box-sizing: border-box ; font-size: 1.25em ; margin-top: 1rem ; margin-bottom: 1rem ; position: relative ; line-height: 1.4 ; cursor: text ; color: rgb(51 , 51 , 51) ; font-family: &amp;#34;open sans&amp;#34; , &amp;#34;clear sans&amp;#34; , &amp;#34;helvetica neue&amp;#34; , &amp;#34;helvetica&amp;#34; , &amp;#34;arial&amp;#34; , &amp;#34;segoe ui emoji&amp;#34; , sans-serif ; background-color: rgb(255 , 255 , 255)&quot;&gt;&lt;br&gt;&lt;/h4&gt;" style="rounded=1;whiteSpace=wrap;html=1;shadow=0;glass=0;sketch=0;fontSize=16;strokeWidth=0;fillColor=#FFFFFF;arcSize=6;" vertex="1" parent="1">
          <mxGeometry x="620" y="226" width="180" height="125" as="geometry" />
        </mxCell>
        <mxCell id="3-FSc-zlcEPN5zXzUESZ-18" value="&lt;h4 class=&quot;md-end-block md-heading md-focus&quot; style=&quot;box-sizing: border-box ; margin-top: 1rem ; margin-bottom: 1rem ; position: relative ; line-height: 1.4 ; cursor: text ; color: rgb(51 , 51 , 51) ; font-family: &amp;#34;open sans&amp;#34; , &amp;#34;clear sans&amp;#34; , &amp;#34;helvetica neue&amp;#34; , &amp;#34;helvetica&amp;#34; , &amp;#34;arial&amp;#34; , &amp;#34;segoe ui emoji&amp;#34; , sans-serif ; background-color: rgb(255 , 255 , 255)&quot;&gt;&lt;br&gt;&lt;/h4&gt;" style="rounded=1;whiteSpace=wrap;html=1;shadow=0;glass=0;sketch=0;fontSize=16;strokeWidth=0;fillColor=#FFFFFF;arcSize=9;" vertex="1" parent="1">
          <mxGeometry x="345" y="227.5" width="180" height="125" as="geometry" />
        </mxCell>
        <mxCell id="3-FSc-zlcEPN5zXzUESZ-25" value="" style="rounded=1;whiteSpace=wrap;html=1;shadow=0;glass=0;sketch=0;fontSize=12;strokeWidth=0;fillColor=#FFFFFF;movable=1;resizable=1;rotatable=1;deletable=1;editable=1;connectable=1;arcSize=11;" vertex="1" parent="1">
          <mxGeometry x="70" y="227" width="195" height="270" as="geometry" />
        </mxCell>
        <mxCell id="3-FSc-zlcEPN5zXzUESZ-28" value="V9-System" style="text;html=1;strokeColor=none;fillColor=none;align=center;verticalAlign=middle;whiteSpace=wrap;rounded=0;shadow=0;glass=0;sketch=0;fontSize=12;fontStyle=1" vertex="1" parent="1">
          <mxGeometry x="131.25" y="230" width="72.5" height="30" as="geometry" />
        </mxCell>
        <mxCell id="3-FSc-zlcEPN5zXzUESZ-29" value="" style="rounded=1;whiteSpace=wrap;html=1;shadow=0;glass=0;sketch=0;fontSize=12;strokeWidth=0;fillColor=#FFFFFF;" vertex="1" parent="1">
          <mxGeometry x="92.5" y="256" width="150" height="70" as="geometry" />
        </mxCell>
        <mxCell id="3-FSc-zlcEPN5zXzUESZ-31" value="NGINX" style="rounded=1;whiteSpace=wrap;html=1;shadow=0;glass=0;sketch=0;fontSize=12;strokeWidth=0;fillColor=#FFFFFF;" vertex="1" parent="1">
          <mxGeometry x="90" y="414" width="150" height="70" as="geometry" />
        </mxCell>
        <mxCell id="3-FSc-zlcEPN5zXzUESZ-33" value="管理接口" style="rounded=1;whiteSpace=wrap;html=1;shadow=0;glass=0;sketch=0;fontSize=9;strokeWidth=0;fillColor=#d5e8d4;strokeColor=#82b366;" vertex="1" parent="1">
          <mxGeometry x="375" y="258" width="120" height="20" as="geometry" />
        </mxCell>
        <mxCell id="3-FSc-zlcEPN5zXzUESZ-34" value="内部接口" style="rounded=1;whiteSpace=wrap;html=1;shadow=0;glass=0;sketch=0;fontSize=9;strokeWidth=0;fillColor=#d5e8d4;strokeColor=#82b366;" vertex="1" parent="1">
          <mxGeometry x="375" y="286" width="120" height="20" as="geometry" />
        </mxCell>
        <mxCell id="3-FSc-zlcEPN5zXzUESZ-35" value="&lt;h4 class=&quot;md-end-block md-heading md-focus&quot; style=&quot;box-sizing: border-box ; margin-top: 1rem ; margin-bottom: 1rem ; position: relative ; line-height: 1.4 ; cursor: text ; color: rgb(51 , 51 , 51) ; font-family: &amp;#34;open sans&amp;#34; , &amp;#34;clear sans&amp;#34; , &amp;#34;helvetica neue&amp;#34; , &amp;#34;helvetica&amp;#34; , &amp;#34;arial&amp;#34; , &amp;#34;segoe ui emoji&amp;#34; , sans-serif ; background-color: rgb(255 , 255 , 255)&quot;&gt;&lt;br&gt;&lt;/h4&gt;" style="rounded=1;whiteSpace=wrap;html=1;shadow=0;glass=0;sketch=0;fontSize=16;strokeWidth=0;fillColor=#FFFFFF;arcSize=9;" vertex="1" parent="1">
          <mxGeometry x="345" y="372" width="180" height="125" as="geometry" />
        </mxCell>
        <mxCell id="3-FSc-zlcEPN5zXzUESZ-36" value="Hook接口" style="rounded=1;whiteSpace=wrap;html=1;shadow=0;glass=0;sketch=0;fontSize=9;strokeWidth=0;fillColor=#d5e8d4;strokeColor=#82b366;" vertex="1" parent="1">
          <mxGeometry x="375" y="312" width="120" height="20" as="geometry" />
        </mxCell>
        <mxCell id="3-FSc-zlcEPN5zXzUESZ-37" value="&lt;font style=&quot;font-size: 9px&quot;&gt;发现/加载&lt;/font&gt;" style="rounded=1;whiteSpace=wrap;html=1;shadow=0;glass=0;sketch=0;fontSize=12;strokeWidth=0;fillColor=#dae8fc;strokeColor=#6c8ebf;" vertex="1" parent="1">
          <mxGeometry x="364" y="400" width="60" height="20" as="geometry" />
        </mxCell>
        <mxCell id="3-FSc-zlcEPN5zXzUESZ-43" value="Plugin Hooks" style="rounded=1;whiteSpace=wrap;html=1;shadow=0;glass=0;sketch=0;fontSize=9;strokeWidth=0;fillColor=#d5e8d4;fontStyle=0;strokeColor=#82b366;" vertex="1" parent="1">
          <mxGeometry x="122.5" y="275" width="90" height="20" as="geometry" />
        </mxCell>
        <mxCell id="3-FSc-zlcEPN5zXzUESZ-44" value="请求转发" style="rounded=1;whiteSpace=wrap;html=1;shadow=0;glass=0;sketch=0;fontSize=9;strokeWidth=0;fillColor=#dae8fc;strokeColor=#6c8ebf;" vertex="1" parent="1">
          <mxGeometry x="122.5" y="300" width="90" height="20" as="geometry" />
        </mxCell>
        <mxCell id="3-FSc-zlcEPN5zXzUESZ-48" value="PAM-APISERVER" style="text;html=1;strokeColor=none;fillColor=none;align=center;verticalAlign=middle;whiteSpace=wrap;rounded=0;shadow=0;glass=0;sketch=0;fontSize=7;fontStyle=1" vertex="1" parent="1">
          <mxGeometry x="137.5" y="257" width="60" height="16" as="geometry" />
        </mxCell>
        <mxCell id="3-FSc-zlcEPN5zXzUESZ-52" value="" style="rounded=1;whiteSpace=wrap;html=1;shadow=0;glass=0;sketch=0;fontSize=12;strokeWidth=0;fillColor=#FFFFFF;" vertex="1" parent="1">
          <mxGeometry x="90" y="334" width="150" height="70" as="geometry" />
        </mxCell>
        <mxCell id="3-FSc-zlcEPN5zXzUESZ-53" value="DB" style="text;html=1;strokeColor=none;fillColor=none;align=center;verticalAlign=middle;whiteSpace=wrap;rounded=0;shadow=0;glass=0;sketch=0;fontSize=7;fontStyle=1" vertex="1" parent="1">
          <mxGeometry x="137.5" y="328" width="60" height="25" as="geometry" />
        </mxCell>
        <mxCell id="3-FSc-zlcEPN5zXzUESZ-54" value="&lt;article class=&quot;4ever-article&quot;&gt;&lt;p style=&quot;text-align: left ; margin-left: 0px ; margin-top: 0px ; margin-bottom: 0px&quot;&gt;&lt;span&gt;配置管理表&lt;/span&gt;&lt;/p&gt;&lt;/article&gt;" style="rounded=1;whiteSpace=wrap;html=1;shadow=0;glass=0;sketch=0;fontSize=9;strokeWidth=0;fillColor=#fff2cc;strokeColor=#d6b656;" vertex="1" parent="1">
          <mxGeometry x="122.5" y="350" width="90" height="20" as="geometry" />
        </mxCell>
        <mxCell id="3-FSc-zlcEPN5zXzUESZ-55" value="&lt;article class=&quot;4ever-article&quot; style=&quot;font-size: 9px;&quot;&gt;&lt;p style=&quot;text-align: left; margin-left: 0px; margin-top: 0px; margin-bottom: 0px; font-size: 9px;&quot;&gt;&lt;span style=&quot;font-size: 9px;&quot;&gt;插件数据表&lt;/span&gt;&lt;/p&gt;&lt;/article&gt;" style="rounded=1;whiteSpace=wrap;html=1;shadow=0;glass=0;sketch=0;fontSize=9;strokeWidth=0;fillColor=#fff2cc;strokeColor=#d6b656;" vertex="1" parent="1">
          <mxGeometry x="122.5" y="378" width="90" height="20" as="geometry" />
        </mxCell>
        <mxCell id="3-FSc-zlcEPN5zXzUESZ-56" value="功能接口" style="text;html=1;strokeColor=none;fillColor=none;align=center;verticalAlign=middle;whiteSpace=wrap;rounded=0;shadow=0;glass=0;sketch=0;fontSize=9;fontStyle=1" vertex="1" parent="1">
          <mxGeometry x="405" y="234" width="60" height="20" as="geometry" />
        </mxCell>
        <mxCell id="3-FSc-zlcEPN5zXzUESZ-59" value="&lt;span style=&quot;font-size: 9px&quot;&gt;更新/回退&lt;/span&gt;" style="rounded=1;whiteSpace=wrap;html=1;shadow=0;glass=0;sketch=0;fontSize=12;strokeWidth=0;fillColor=#dae8fc;strokeColor=#6c8ebf;" vertex="1" parent="1">
          <mxGeometry x="446" y="400" width="60" height="20" as="geometry" />
        </mxCell>
        <mxCell id="3-FSc-zlcEPN5zXzUESZ-60" value="&lt;font style=&quot;font-size: 9px&quot;&gt;备份/还原&lt;/font&gt;" style="rounded=1;whiteSpace=wrap;html=1;shadow=0;glass=0;sketch=0;fontSize=12;strokeWidth=0;fillColor=#dae8fc;strokeColor=#6c8ebf;" vertex="1" parent="1">
          <mxGeometry x="446" y="432" width="60" height="20" as="geometry" />
        </mxCell>
        <mxCell id="3-FSc-zlcEPN5zXzUESZ-61" value="&lt;font style=&quot;font-size: 9px&quot;&gt;卸载/清理&lt;/font&gt;" style="rounded=1;whiteSpace=wrap;html=1;shadow=0;glass=0;sketch=0;fontSize=12;strokeWidth=0;fillColor=#dae8fc;strokeColor=#6c8ebf;" vertex="1" parent="1">
          <mxGeometry x="364" y="432" width="60" height="20" as="geometry" />
        </mxCell>
        <mxCell id="3-FSc-zlcEPN5zXzUESZ-62" value="&lt;font style=&quot;font-size: 9px&quot;&gt;监控/日志&lt;/font&gt;" style="rounded=1;whiteSpace=wrap;html=1;shadow=0;glass=0;sketch=0;fontSize=12;strokeWidth=0;fillColor=#dae8fc;strokeColor=#6c8ebf;" vertex="1" parent="1">
          <mxGeometry x="364" y="463" width="60" height="20" as="geometry" />
        </mxCell>
        <mxCell id="3-FSc-zlcEPN5zXzUESZ-63" value="&lt;font style=&quot;font-size: 9px&quot;&gt;数据管理&lt;/font&gt;" style="rounded=1;whiteSpace=wrap;html=1;shadow=0;glass=0;sketch=0;fontSize=12;strokeWidth=0;fillColor=#dae8fc;strokeColor=#6c8ebf;" vertex="1" parent="1">
          <mxGeometry x="446" y="463" width="60" height="20" as="geometry" />
        </mxCell>
        <mxCell id="3-FSc-zlcEPN5zXzUESZ-64" value="Plugin-core" style="text;html=1;strokeColor=none;fillColor=none;align=center;verticalAlign=middle;whiteSpace=wrap;rounded=0;shadow=0;glass=0;sketch=0;fontSize=9;fontStyle=1" vertex="1" parent="1">
          <mxGeometry x="405" y="368" width="60" height="30" as="geometry" />
        </mxCell>
        <mxCell id="3-FSc-zlcEPN5zXzUESZ-67" value="配置数据" style="rounded=1;whiteSpace=wrap;html=1;shadow=0;glass=0;sketch=0;fontSize=9;strokeWidth=0;fillColor=#fff2cc;strokeColor=#d6b656;" vertex="1" parent="1">
          <mxGeometry x="655" y="254" width="110" height="26" as="geometry" />
        </mxCell>
        <mxCell id="3-FSc-zlcEPN5zXzUESZ-68" value="OAuth Plugin" style="text;html=1;strokeColor=none;fillColor=none;align=center;verticalAlign=middle;whiteSpace=wrap;rounded=0;shadow=0;glass=0;sketch=0;fontSize=9;fontStyle=1" vertex="1" parent="1">
          <mxGeometry x="680" y="230" width="60" height="30" as="geometry" />
        </mxCell>
        <mxCell id="3-FSc-zlcEPN5zXzUESZ-70" value="接口" style="rounded=1;whiteSpace=wrap;html=1;shadow=0;glass=0;sketch=0;fontSize=9;strokeWidth=0;fillColor=#d5e8d4;strokeColor=#82b366;" vertex="1" parent="1">
          <mxGeometry x="655" y="286" width="110" height="26" as="geometry" />
        </mxCell>
        <mxCell id="3-FSc-zlcEPN5zXzUESZ-71" value="插件逻辑" style="rounded=1;whiteSpace=wrap;html=1;shadow=0;glass=0;sketch=0;fontSize=9;strokeWidth=0;fillColor=#dae8fc;strokeColor=#6c8ebf;" vertex="1" parent="1">
          <mxGeometry x="655" y="319" width="110" height="26" as="geometry" />
        </mxCell>
        <mxCell id="3-FSc-zlcEPN5zXzUESZ-72" value="&lt;h4 class=&quot;md-end-block md-heading md-focus&quot; style=&quot;box-sizing: border-box ; font-size: 1.25em ; margin-top: 1rem ; margin-bottom: 1rem ; position: relative ; line-height: 1.4 ; cursor: text ; color: rgb(51 , 51 , 51) ; font-family: &amp;#34;open sans&amp;#34; , &amp;#34;clear sans&amp;#34; , &amp;#34;helvetica neue&amp;#34; , &amp;#34;helvetica&amp;#34; , &amp;#34;arial&amp;#34; , &amp;#34;segoe ui emoji&amp;#34; , sans-serif ; background-color: rgb(255 , 255 , 255)&quot;&gt;&lt;br&gt;&lt;/h4&gt;" style="rounded=1;whiteSpace=wrap;html=1;shadow=0;glass=0;sketch=0;fontSize=16;strokeWidth=0;fillColor=#FFFFFF;arcSize=6;" vertex="1" parent="1">
          <mxGeometry x="620" y="370" width="180" height="125" as="geometry" />
        </mxCell>
        <mxCell id="3-FSc-zlcEPN5zXzUESZ-73" value="Plugin X" style="text;html=1;strokeColor=none;fillColor=none;align=center;verticalAlign=middle;whiteSpace=wrap;rounded=0;shadow=0;glass=0;sketch=0;fontSize=9;fontStyle=1" vertex="1" parent="1">
          <mxGeometry x="680" y="368" width="60" height="30" as="geometry" />
        </mxCell>
        <mxCell id="3-FSc-zlcEPN5zXzUESZ-74" value="配置数据" style="rounded=1;whiteSpace=wrap;html=1;shadow=0;glass=0;sketch=0;fontSize=9;strokeWidth=0;fillColor=#fff2cc;strokeColor=#d6b656;" vertex="1" parent="1">
          <mxGeometry x="655" y="394" width="110" height="26" as="geometry" />
        </mxCell>
        <mxCell id="3-FSc-zlcEPN5zXzUESZ-75" value="接口" style="rounded=1;whiteSpace=wrap;html=1;shadow=0;glass=0;sketch=0;fontSize=9;strokeWidth=0;fillColor=#d5e8d4;strokeColor=#82b366;" vertex="1" parent="1">
          <mxGeometry x="655" y="428" width="110" height="26" as="geometry" />
        </mxCell>
        <mxCell id="3-FSc-zlcEPN5zXzUESZ-76" value="插件逻辑" style="rounded=1;whiteSpace=wrap;html=1;shadow=0;glass=0;sketch=0;fontSize=9;strokeWidth=0;fillColor=#dae8fc;strokeColor=#6c8ebf;" vertex="1" parent="1">
          <mxGeometry x="655" y="462" width="110" height="26" as="geometry" />
        </mxCell>
        <mxCell id="3-FSc-zlcEPN5zXzUESZ-83" value="" style="shape=doubleArrow;whiteSpace=wrap;html=1;rounded=1;shadow=0;glass=0;sketch=0;fontSize=9;strokeWidth=0;fillColor=#28E5B5;arrowWidth=0.5666666666666667;arrowSize=0.3333333333333333;" vertex="1" parent="1">
          <mxGeometry x="540" y="350" width="60" height="28" as="geometry" />
        </mxCell>
        <mxCell id="3-FSc-zlcEPN5zXzUESZ-86" value="" style="shape=doubleArrow;whiteSpace=wrap;html=1;rounded=1;shadow=0;glass=0;sketch=0;fontSize=9;strokeWidth=0;fillColor=#28E5B5;arrowWidth=0.5666666666666667;arrowSize=0.3333333333333333;" vertex="1" parent="1">
          <mxGeometry x="276" y="352" width="60" height="28" as="geometry" />
        </mxCell>
        <mxCell id="3-FSc-zlcEPN5zXzUESZ-92" value="" style="endArrow=classic;startArrow=classic;html=1;rounded=0;fontSize=9;entryX=0.5;entryY=1;entryDx=0;entryDy=0;" edge="1" parent="1" target="3-FSc-zlcEPN5zXzUESZ-18">
          <mxGeometry width="50" height="50" relative="1" as="geometry">
            <mxPoint x="435" y="380" as="sourcePoint" />
            <mxPoint x="490" y="360" as="targetPoint" />
          </mxGeometry>
        </mxCell>
      </root>
    </mxGraphModel>
  </diagram>
</mxfile>
